<svg id="svg" version="1.1" xmlns="http://www.w3.org/2000/svg" style="display: block;" viewBox="0 0 374 380"><path d="M0 0 C123.42 0 246.84 0 374 0 C374 125.4 374 250.8 374 380 C250.58 380 127.16 380 0 380 C0 254.6 0 129.2 0 0 Z M188.453125 83.96484375 C181.62120561 92.41771217 176.25839235 101.39592622 171.22680664 111.0090332 C165.78733366 121.39725364 160.67027418 130.03777595 152 138 C151.27683594 138.72703125 150.55367188 139.4540625 149.80859375 140.203125 C133.33815032 156.09725457 112.62714003 160.23335436 90.5 160.375 C89.78678589 160.38022675 89.07357178 160.38545349 88.33874512 160.39083862 C77.40400823 160.42793631 68.13135471 159.36449603 58 155 C56.67128436 154.64871147 55.3385459 154.31174312 54 154 C52.33121047 161.07363204 51.6351193 167.80190303 51.625 175.0625 C51.60050781 175.99126953 51.57601562 176.92003906 51.55078125 177.87695312 C51.51361298 186.70441694 54.20697383 193.95953715 60.23828125 200.4921875 C65.8765625 205.31785615 71.77084629 206.52575663 79 206 C78.7834375 206.52464844 78.566875 207.04929688 78.34375 207.58984375 C76.28785824 213.31017221 75.61988952 218.71968724 75.5 224.75 C75.46970703 225.47050537 75.43941406 226.19101074 75.40820312 226.93334961 C75.40460201 230.83020496 75.9394562 233.44011097 78.30078125 236.48046875 C80.84610711 239.33141458 80.84610711 239.33141458 84.6875 239.5625 C89.64255765 239.19300239 94.3260238 237.60907378 99 236 C98.9071875 237.5778125 98.9071875 237.5778125 98.8125 239.1875 C99.0090428 243.18387024 99.60570516 244.86899906 102 248 C106.58308783 250.29154391 111.98021099 248.86029388 116.8125 248 C128.32983093 246.15137529 141.0992045 245.2297046 152 250 C152.82628906 250.35191406 153.65257812 250.70382813 154.50390625 251.06640625 C160.43225562 253.80883352 166.73949741 256.94772259 171 262 C171.86688879 264.84601226 172.23796475 267.5098733 172.546875 270.46484375 C173.24514094 274.37152127 174.84674943 275.71389334 178 278 C178.66 278 179.32 278 180 278 C179.95359375 278.83144531 179.9071875 279.66289062 179.859375 280.51953125 C179.82328125 281.60621094 179.7871875 282.69289063 179.75 283.8125 C179.70359375 284.89144531 179.6571875 285.97039062 179.609375 287.08203125 C179.7120137 290.06081639 179.7120137 290.06081639 181.7421875 291.78125 C190.67720405 296.60430391 200.78898028 297.37949943 210.6953125 295.484375 C223.60813434 291.2493016 235.21173767 276.97799187 241.4375 265.3046875 C245.3970007 256.01732924 246.24239769 246.48598675 246.4375 236.5 C246.78712787 224.76197275 248.090458 213.39466555 251 202 C270.6901799 206.75071076 270.6901799 206.75071076 277.9921875 210.88671875 C280.25974239 212.14402059 282.57977495 213.07660403 285 214 C285.350625 213.13375 285.70125 212.2675 286.0625 211.375 C289.49454652 205.39659639 293.64569293 202.54172283 300 200 C300.66 194.39 301.32 188.78 302 183 C303.65 183.66 305.3 184.32 307 185 C310.91753819 181.47421563 312.76695842 178.47778034 313.265625 173.17578125 C313.26046875 172.23089844 313.2553125 171.28601563 313.25 170.3125 C313.25515625 169.35988281 313.2603125 168.40726562 313.265625 167.42578125 C313.23627741 164.81898636 313.23627741 164.81898636 311 163 C310.01 163 309.02 163 308 163 C311.96 153.595 311.96 153.595 316 144 C307.7012748 143.21233901 307.7012748 143.21233901 304.0625 145.8125 C301.86570891 148.02029982 301.86570891 148.02029982 300 151 C299.16855469 150.6390625 298.33710938 150.278125 297.48046875 149.90625 C296.39378906 149.4421875 295.30710937 148.978125 294.1875 148.5 C293.10855469 148.0359375 292.02960938 147.571875 290.91796875 147.09375 C288.05117976 145.82450697 288.05117976 145.82450697 285 146 C282.50985921 141.35173719 281.73840245 138.42257766 282.9375 133.25 C286.59739402 113.03344254 285.18957408 90.96603247 274.25 73.25 C268.437171 65.07941638 261.57826477 59.92807058 252 57 C251.39671875 56.80921875 250.7934375 56.6184375 250.171875 56.421875 C225.56705111 51.64252072 204.00976279 66.18233483 188.453125 83.96484375 Z " transform="translate(0,0)" style="fill: #02435D;"/><path d="M0 0 C10.91955613 9.25788455 17.56378778 22.05838738 18.99780273 36.24536133 C19.34726814 40.97461323 19.37689147 45.6971027 19.375 50.4375 C19.37781982 51.48768311 19.38063965 52.53786621 19.38354492 53.61987305 C19.34586891 60.94645225 18.72075039 67.89480063 17.33203125 75.08203125 C16.87789311 77.84023103 16.87789311 77.84023103 18.63671875 79.57421875 C19.14847656 79.98285156 19.66023437 80.39148438 20.1875 80.8125 C20.1875 81.4725 20.1875 82.1325 20.1875 82.8125 C21.13625 82.93625 22.085 83.06 23.0625 83.1875 C26.1875 83.8125 26.1875 83.8125 28.1875 85.8125 C23.12724626 84.71611169 18.12622922 83.52836323 13.125 82.1875 C8.29692488 80.95729904 4.15049393 80.52617343 -0.8125 80.8125 C-1.06 81.864375 -1.3075 82.91625 -1.5625 84 C-3.05731707 90.01176431 -4.95718914 95.90432562 -6.8125 101.8125 C-6.05453125 101.95300781 -5.2965625 102.09351563 -4.515625 102.23828125 C-1.14138776 102.95506286 1.29909036 103.90877546 4.1875 105.8125 C5.4375 108.6875 5.4375 108.6875 5.1875 111.8125 C0.5549609 117.50390518 -5.82733951 118.52631027 -12.8125 119.8125 C-13.4725 119.8125 -14.1325 119.8125 -14.8125 119.8125 C-14.92207031 120.39257812 -15.03164062 120.97265625 -15.14453125 121.5703125 C-16.13319743 126.44130195 -17.49148623 130.38147371 -19.8125 134.8125 C-19.8125 135.8025 -19.8125 136.7925 -19.8125 137.8125 C-18.1625 138.1425 -16.5125 138.4725 -14.8125 138.8125 C-15.24632184 142.42768198 -15.67900085 146.02682466 -16.2890625 149.6171875 C-17.38534163 156.3093989 -17.92575478 162.77994832 -18.10400391 169.55395508 C-18.7049295 192.10623586 -24.15275637 207.20271972 -40.234375 223.35839844 C-47.23896071 229.8125 -47.23896071 229.8125 -51.8125 229.8125 C-51.85117187 228.76449219 -51.85117187 228.76449219 -51.890625 227.6953125 C-51.94734375 226.78523437 -52.0040625 225.87515625 -52.0625 224.9375 C-52.10890625 224.03257812 -52.1553125 223.12765625 -52.203125 222.1953125 C-52.56195881 219.70499945 -52.56195881 219.70499945 -54.546875 218.6171875 C-55.29453125 218.35164062 -56.0421875 218.08609375 -56.8125 217.8125 C-57.56499023 217.47081787 -58.31748047 217.12913574 -59.09277344 216.77709961 C-62.10063178 215.71030892 -64.41025202 215.57292254 -67.59375 215.57421875 C-69.22763672 215.55004883 -69.22763672 215.55004883 -70.89453125 215.52539062 C-73.17312017 215.50846396 -75.45182626 215.50325522 -77.73046875 215.50976562 C-86.04322877 215.35728304 -86.04322877 215.35728304 -90.01171875 212.546875 C-95.27946326 204.54813062 -93.97324497 194.08183415 -93.65161133 184.86938477 C-93.48430398 177.41461912 -94.50745002 170.59291353 -99 164.4375 C-104.90566424 158.92554671 -111.12096217 158.19440131 -118.94140625 158.40234375 C-132.85032495 159.87604351 -145.82383387 164.75206103 -158.69287109 169.96923828 C-176.9131957 177.21791384 -176.9131957 177.21791384 -183.8125 175.8125 C-187.4525448 172.37939652 -188.6532847 170.87253868 -189.40625 165.859375 C-189.40492609 164.42674308 -189.37268052 162.99386798 -189.3125 161.5625 C-189.29767578 160.81685791 -189.28285156 160.07121582 -189.26757812 159.30297852 C-189.06098308 153.49249301 -188.04031407 148.2096448 -185.8125 142.8125 C-186.92625 142.915625 -188.04 143.01875 -189.1875 143.125 C-195.77255365 143.07838015 -201.31359261 140.31600943 -205.93359375 135.6875 C-212.1138125 128.08107692 -213.14020297 121.64586679 -213.0625 112.0625 C-213.07023437 111.1240625 -213.07796875 110.185625 -213.0859375 109.21875 C-213.0683894 102.86633914 -212.28992626 96.98807445 -210.8125 90.8125 C-210.14138184 91.01383545 -209.47026367 91.2151709 -208.77880859 91.42260742 C-208.00617676 91.65439697 -207.23354492 91.88618652 -206.4375 92.125 C-205.62539062 92.36863281 -204.81328125 92.61226563 -203.9765625 92.86328125 C-202.93242187 93.17652344 -201.88828125 93.48976563 -200.8125 93.8125 C-199.81126099 94.19063843 -199.81126099 94.19063843 -198.78979492 94.57641602 C-191.58202296 97.11629756 -184.55293246 97.23901363 -176.99047852 97.14868164 C-174.88193351 97.12507762 -172.77465973 97.12814315 -170.66601562 97.13476562 C-159.92413701 97.1140211 -149.88836171 96.01753523 -139.8125 92.125 C-139.13171387 91.86372314 -138.45092773 91.60244629 -137.74951172 91.33325195 C-127.28311345 87.15928492 -118.72755481 80.78524472 -110.8125 72.8125 C-110.13147217 72.12849121 -109.45044434 71.44448242 -108.7487793 70.73974609 C-102.73047327 64.41896463 -98.77836183 57.82774688 -94.875 50.0625 C-81.98978982 25.37363435 -64.70384708 2.14009411 -36.9375 -6.625 C-24.13708632 -9.0697142 -10.71655782 -7.75777755 0 0 Z M-11.8125 41.8125 C-12.616875 42.76125 -13.42125 43.71 -14.25 44.6875 C-14.92869141 45.48800781 -14.92869141 45.48800781 -15.62109375 46.3046875 C-17.70354847 48.94018758 -17.92801338 50.65067036 -17.875 53.9375 C-17.854375 55.21625 -17.83375 56.495 -17.8125 57.8125 C-16.1625 58.1425 -14.5125 58.4725 -12.8125 58.8125 C-12.008125 57.86375 -11.20375 56.915 -10.375 55.9375 C-9.92253906 55.40382813 -9.47007812 54.87015625 -9.00390625 54.3203125 C-6.92145153 51.68481242 -6.69698662 49.97432964 -6.75 46.6875 C-6.770625 45.40875 -6.79125 44.13 -6.8125 42.8125 C-8.4625 42.4825 -10.1125 42.1525 -11.8125 41.8125 Z M0.1875 47.8125 C-2.84419839 50.35066609 -4.55419637 52.03758911 -5.8125 55.8125 C-5.85204234 58.14549825 -5.85651732 60.47958189 -5.8125 62.8125 C-4.4925 63.1425 -3.1725 63.4725 -1.8125 63.8125 C2.97694649 59.02305351 4.02310987 55.53755081 4.1875 48.8125 C2.32885134 48.10387785 2.32885134 48.10387785 0.1875 47.8125 Z " transform="translate(264.8125,63.1875)" style="fill: #DDF0FC;"/><path d="M0 0 C6.08339871 -0.35096531 11.1570774 0.62723483 17.03125 2.20703125 C19.65760984 2.90854579 22.27709602 3.50824917 24.9375 4.0625 C28.11477191 4.7499461 31.02554817 5.65669918 34 7 C33.67 7.99 33.34 8.98 33 10 C33.99 10 34.98 10 36 10 C35.36564762 17.07217178 33.58393803 23.6257382 31.625 30.4375 C31.32078125 31.51837891 31.0165625 32.59925781 30.703125 33.71289062 C29.16166717 39.14422389 27.52962995 44.52272851 25.70996094 49.86694336 C24.47777131 53.56902065 23.3994299 57.31571142 22.3125 61.0625 C22.08755859 61.83271484 21.86261719 62.60292969 21.63085938 63.39648438 C21.08571912 65.26387973 20.54263554 67.13187528 20 69 C15.93104461 69 15.21868903 68.74786558 11.9375 66.8125 C4.16867113 62.71130829 -4.5152808 61.04713451 -13 59 C-13.33 59.66 -13.66 60.32 -14 61 C-14 60.34 -14 59.68 -14 59 C-15.65 59 -17.3 59 -19 59 C-19.80981029 56.67372967 -20.16865034 55.45190838 -19.29296875 53.10546875 C-18.92816406 52.47253906 -18.56335938 51.83960938 -18.1875 51.1875 C-16.62079199 48.44434698 -15.91099408 46.5461676 -15.2890625 43.375 C-14 40 -14 40 -10.91796875 38.58203125 C-9.68691406 38.32808594 -8.45585937 38.07414062 -7.1875 37.8125 C-2.04763433 36.71303453 1.10253834 35.58566472 5 32 C5.30110818 29.11095637 5.30110818 29.11095637 4 26 C0.81348089 24.20860084 -2.51426761 23.07545283 -6 22 C-5.51059192 17.30168246 -4.51163936 13.38215369 -2.765625 9 C-1.6364103 6.05021467 -0.82532436 3.0473515 0 0 Z " transform="translate(264,143)" style="fill: #F1A4C7;"/><path d="M0 0 C4.98015839 4.23957449 6.94024537 8.54847473 8 15 C8.25791856 18.29812943 8.2808083 21.56824295 8.25 24.875 C8.26160156 26.15503906 8.26160156 26.15503906 8.2734375 27.4609375 C8.27085937 28.275625 8.26828125 29.0903125 8.265625 29.9296875 C8.26336914 30.66429199 8.26111328 31.39889648 8.25878906 32.15576172 C8 34 8 34 6 36 C5.35675781 35.48050781 4.71351563 34.96101563 4.05078125 34.42578125 C-6.38852687 26.36919681 -17.23872041 21.80150674 -30.4375 21.8125 C-31.63596558 21.8115332 -31.63596558 21.8115332 -32.85864258 21.81054688 C-38.78605436 21.862776 -44.44549422 22.52342973 -50.2890625 23.5390625 C-58.44341449 24.92553733 -58.44341449 24.92553733 -62.3125 22.625 C-64.08574488 19.86661907 -64.51541135 18.02585481 -65.10546875 14.8359375 C-65.2758667 13.93149902 -65.44626465 13.02706055 -65.62182617 12.09521484 C-65.74662354 11.40379395 -65.8714209 10.71237305 -66 10 C-41.34719616 0.87842939 -41.34719616 0.87842939 -31 -2 C-29.84951172 -2.33644531 -29.84951172 -2.33644531 -28.67578125 -2.6796875 C-19.13128474 -5.18147653 -8.42303201 -5.75687067 0 0 Z " transform="translate(164,225)" style="fill: #87BDD8;"/><path d="M0 0 C1.22589844 0.01353516 1.22589844 0.01353516 2.4765625 0.02734375 C3.41628906 0.04474609 3.41628906 0.04474609 4.375 0.0625 C4.0193396 0.94772339 4.0193396 0.94772339 3.65649414 1.85083008 C2.58259192 4.52519134 1.51003128 7.20008865 0.4375 9.875 C-0.12227539 11.2681543 -0.12227539 11.2681543 -0.69335938 12.68945312 C-1.05107422 13.58212891 -1.40878906 14.47480469 -1.77734375 15.39453125 C-2.10726318 16.21671143 -2.43718262 17.0388916 -2.77709961 17.88598633 C-3.44216342 19.59316857 -4.04562266 21.32436797 -4.625 23.0625 C-5.6043879 24.08269573 -6.60395449 25.08399805 -7.625 26.0625 C-7.955 26.7225 -8.285 27.3825 -8.625 28.0625 C-9.285 28.0625 -9.945 28.0625 -10.625 28.0625 C-10.65236707 29.45822052 -10.67155989 30.85410221 -10.6875 32.25 C-10.69910156 33.02730469 -10.71070313 33.80460937 -10.72265625 34.60546875 C-10.69901757 37.06543767 -10.69901757 37.06543767 -10.09375 39.421875 C-9.10211715 45.0080734 -9.95037405 50.6825993 -11.625 56.0625 C-13.56063914 57.8679392 -15.09865999 58.51061844 -17.58984375 59.3515625 C-20.77651272 60.46475588 -22.50783923 62.50945319 -24.625 65.0625 C-25.944018 67.72783035 -25.944018 67.72783035 -26.625 70.0625 C-27.285 70.0625 -27.945 70.0625 -28.625 70.0625 C-27.17654858 63.41605979 -25.67889429 56.88393007 -23.4296875 50.4609375 C-22.07025068 46.40902387 -20.96315872 42.28489685 -19.8046875 38.171875 C-18.1621564 32.39270582 -16.40031054 26.64829872 -14.64331055 20.90307617 C-13.45286222 16.97696438 -12.31288955 13.11524687 -11.625 9.0625 C-12.615 9.0625 -13.605 9.0625 -14.625 9.0625 C-14.625 8.4025 -14.625 7.7425 -14.625 7.0625 C-13.75875 6.9696875 -13.75875 6.9696875 -12.875 6.875 C-9.74242429 5.7437921 -8.59039149 3.68302199 -6.625 1.0625 C-4.21954362 -0.14022819 -2.67503047 -0.03821472 0 0 Z " transform="translate(311.625,143.9375)" style="fill: #F0BFD8;"/><path d="M0 0 C3.70818297 -0.08756305 7.41609763 -0.14058015 11.125 -0.1875 C12.17171875 -0.21263672 13.2184375 -0.23777344 14.296875 -0.26367188 C21.288441 -0.3300475 25.51865768 0.55365135 31.3125 4.625 C33.82045897 8.15472003 33.81866912 11.75685732 34 16 C23.99102319 19.77982508 14.22623585 18.64316 4.328125 15.0703125 C2 14 2 14 0 12 C-0.1953125 9.1796875 -0.1953125 9.1796875 -0.125 5.875 C-0.10695312 4.77929688 -0.08890625 3.68359375 -0.0703125 2.5546875 C-0.04710937 1.71164062 -0.02390625 0.86859375 0 0 Z " transform="translate(180,278)" style="fill: #85BCD6;"/><path d="M0 0 C2.625 0.375 2.625 0.375 5 1 C5.4226988 7.12913259 5.00963916 10.04691633 1 15 C0.34 15.66 -0.32 16.32 -1 17 C-3.625 16.625 -3.625 16.625 -6 16 C-6.4226988 9.87086741 -6.00963916 6.95308367 -2 2 C-1.34 1.34 -0.68 0.68 0 0 Z " transform="translate(253,105)" style="fill: #13556E;"/><path d="M0 0 C3.875 0.875 3.875 0.875 5 2 C5.55292403 8.24166163 5.65231943 13.66199468 2 19 C0 20 0 20 -3 19 C-4.0686132 15.79416039 -4.31727934 13.72808505 -2.953125 10.59765625 C-1.69255716 8.35625332 -0.38949795 6.16357812 1 4 C0.34 4 -0.32 4 -1 4 C-0.67 2.68 -0.34 1.36 0 0 Z " transform="translate(308,163)" style="fill: #F0F7FA;"/><path d="M0 0 C-0.16439013 6.72505081 -1.21055351 10.21055351 -6 15 C-7.32 14.67 -8.64 14.34 -10 14 C-10.49925898 7.88407749 -9.35277477 4.93055113 -6 0 C-3.50907189 -1.24546405 -2.58919267 -0.7767578 0 0 Z " transform="translate(269,112)" style="fill: #1B5B73;"/><path d="M0 0 C1.32 0 2.64 0 4 0 C3.52254985 2.57823079 2.89774498 4.15542763 1.4375 6.375 C-0.26054198 9.47577231 -0.24294519 11.51778564 0 15 C0.99 15 1.98 15 3 15 C2.67 15.99 2.34 16.98 2 18 C-0.02045442 17.39816251 -2.02111039 16.72693904 -4 16 C-5.26026798 13.47946405 -4.91874445 12.1457902 -4.5625 9.375 C-4.46066406 8.55773437 -4.35882813 7.74046875 -4.25390625 6.8984375 C-4.17011719 6.27195313 -4.08632813 5.64546875 -4 5 C-3.34 5 -2.68 5 -2 5 C-1.34 3.35 -0.68 1.7 0 0 Z " transform="translate(305,167)" style="fill: #D4E1F0;"/></svg>